<svg width="1440" height="765" viewBox="0 0 1440 765" fill="none" xmlns="http://www.w3.org/2000/svg">
<path d="M1226.51 464.358H1207.57C1207.57 439.26 1227.91 418.914 1253.01 418.914H1324.98V437.852H1253.01C1238.38 437.844 1226.51 449.713 1226.51 464.358Z" fill="#22B573"/>
<path d="M71.5114 708L95.2656 708C95.2656 739.48 69.7461 765 38.2657 765L-52 765L-52 741.246L38.2657 741.246C56.6243 741.256 71.5114 726.369 71.5114 708Z" fill="#22B573"/>
<path d="M1324.98 341.436V322.498C1350.07 322.498 1370.42 342.844 1370.42 367.942V439.906H1351.48V367.942C1351.49 353.305 1339.62 341.436 1324.98 341.436Z" fill="#2D3E4C"/>
<path d="M1311.72 384.99V403.928C1286.63 403.928 1266.28 383.582 1266.28 358.484V286.52H1285.22V358.484C1285.21 373.129 1297.08 384.99 1311.72 384.99Z" fill="#2D3E4C"/>
<path d="M1440.1 140.693V159.631C1415 159.631 1394.66 139.285 1394.66 114.187V42.2227H1413.59V114.187C1413.59 128.832 1425.46 140.693 1440.1 140.693Z" fill="#2D3E4C"/>
<path d="M1190.53 136.913H1171.59C1171.59 162.011 1191.94 182.357 1217.03 182.357H1289V163.418H1217.03C1202.4 163.418 1190.53 151.55 1190.53 136.913Z" fill="#2D3E4C"/>
<path d="M1352.61 78.209H1371.54C1371.54 103.307 1351.2 123.652 1326.1 123.652H1254.14V104.714H1326.1C1340.74 104.714 1352.61 92.8455 1352.61 78.209Z" fill="#2D3E4C"/>
<path d="M1324.98 -50.7912V-69.7293C1350.07 -69.7293 1370.42 -49.3837 1370.42 -24.2859V47.6788H1351.48V-24.2859C1351.49 -38.9302 1339.62 -50.7912 1324.98 -50.7912Z" fill="#2D3E4C"/>
<path d="M1336.5 178.569V159.631C1361.6 159.631 1381.94 179.976 1381.94 205.074V277.039H1363V205.074C1363.01 190.438 1351.14 178.569 1336.5 178.569Z" fill="#2D3E4C"/>
<path d="M1238.03 277.039H1219.09C1219.09 251.941 1239.44 231.595 1264.53 231.595H1336.5V250.534H1264.53C1249.9 250.534 1238.03 262.402 1238.03 277.039Z" fill="#2D3E4C"/>
<path d="M1088.6 32.4176L1069.67 31.7059C1070.61 6.62387 1091.71 -12.9389 1116.79 -12.0058L1188.7 -9.3094L1187.99 9.61286L1116.08 6.91645C1101.44 6.37085 1089.14 17.7811 1088.6 32.4176Z" fill="#2D3E4C"/>
<path d="M1411.48 358.484C1398.93 358.484 1388.76 368.661 1388.76 381.21C1388.76 393.759 1398.93 403.936 1411.48 403.936C1424.03 403.936 1434.21 393.759 1434.21 381.21C1434.21 368.653 1424.03 358.484 1411.48 358.484ZM1411.48 394.463C1404.16 394.463 1398.23 388.532 1398.23 381.21C1398.23 373.888 1404.17 367.957 1411.48 367.957C1418.81 367.957 1424.74 373.888 1424.74 381.21C1424.74 388.524 1418.81 394.463 1411.48 394.463Z" fill="#2D3E4C"/>
<path d="M1230.3 375.272C1217.75 375.272 1207.57 385.448 1207.57 397.997C1207.57 410.546 1217.75 420.723 1230.3 420.723C1242.84 420.723 1253.02 410.546 1253.02 397.997C1253.02 385.448 1242.84 375.272 1230.3 375.272ZM1230.3 411.25C1222.97 411.25 1217.04 405.32 1217.04 397.997C1217.04 390.675 1222.98 384.745 1230.3 384.745C1237.62 384.745 1243.55 390.675 1243.55 397.997C1243.56 405.32 1237.62 411.25 1230.3 411.25Z" fill="#2D3E4C"/>
<path d="M1129.18 136.913C1116.63 136.913 1106.46 147.09 1106.46 159.639C1106.46 172.188 1116.63 182.364 1129.18 182.364C1141.73 182.364 1151.91 172.188 1151.91 159.639C1151.91 147.082 1141.73 136.913 1129.18 136.913ZM1129.18 172.891C1121.86 172.891 1115.93 166.961 1115.93 159.639C1115.93 152.317 1121.87 146.386 1129.18 146.386C1136.51 146.386 1142.44 152.317 1142.44 159.639C1142.44 166.953 1136.51 172.891 1129.18 172.891Z" fill="#2D3E4C"/>
<path d="M1219.09 537.641C1225.1 537.641 1229.97 532.77 1229.97 526.76C1229.97 520.751 1225.1 515.88 1219.09 515.88C1213.08 515.88 1208.21 520.751 1208.21 526.76C1208.21 532.77 1213.08 537.641 1219.09 537.641Z" fill="#2D3E4C"/>
<path d="M76.7257 11C64.1767 11 54 21.1768 54 33.7257C54 46.2746 64.1767 56.4514 76.7257 56.4514C89.2746 56.4514 99.4513 46.2746 99.4513 33.7257C99.4513 21.1688 89.2825 11 76.7257 11ZM76.7257 46.9784C69.4035 46.9784 63.473 41.0479 63.473 33.7257C63.473 26.4035 69.4114 20.473 76.7257 20.473C84.0479 20.473 89.9784 26.4035 89.9784 33.7257C89.9863 41.04 84.0479 46.9784 76.7257 46.9784Z" fill="#22B573"/>
<path d="M1417.37 287.919C1423.38 287.919 1428.26 283.048 1428.26 277.039C1428.26 271.03 1423.38 266.158 1417.37 266.158C1411.37 266.158 1406.49 271.03 1406.49 277.039C1406.49 283.048 1411.37 287.919 1417.37 287.919Z" fill="#2D3E4C"/>
<path d="M1406.5 21.0706C1412.51 21.0706 1417.38 16.1992 1417.38 10.1901C1417.38 4.18099 1412.51 -0.690369 1406.5 -0.690369C1400.49 -0.690369 1395.62 4.18099 1395.62 10.1901C1395.62 16.1992 1400.49 21.0706 1406.5 21.0706Z" fill="#2D3E4C"/>
<path d="M1186.92 234.015V215.077C1161.82 215.077 1141.47 235.423 1141.47 260.52V332.485H1160.41V260.52C1160.4 245.884 1172.27 234.015 1186.92 234.015Z" fill="#2D3E4C"/>
<path d="M1018.47 -39H1037.41C1037.41 -13.9021 1017.06 6.44347 991.965 6.44347H920V-12.4867H991.965C1006.6 -12.4946 1018.47 -24.3556 1018.47 -39Z" fill="#2D3E4C"/>
<path d="M-86.0619 195.126H-105C-105 170.028 -84.6544 149.682 -59.5565 149.682H12.4081V168.621H-59.5565C-74.2009 168.621 -86.0619 180.489 -86.0619 195.126Z" fill="#2D3E4C"/>
<path d="M1088.52 420.344H1069.58C1069.58 395.246 1089.92 374.9 1115.02 374.9H1186.99V393.838H1115.02C1100.38 393.83 1088.52 405.699 1088.52 420.344Z" fill="#2D3E4C"/>
<path d="M897.438 230.5H878.5C878.5 205.402 898.846 185.057 923.944 185.057H995.908V203.995H923.944C909.299 203.987 897.438 215.856 897.438 230.5Z" fill="#2D3E4C"/>
<path d="M1075.78 492.3H1094.72C1094.72 517.398 1074.37 537.744 1049.27 537.744H977.308V518.814H1049.27C1063.92 518.806 1075.78 506.945 1075.78 492.3Z" fill="#2D3E4C"/>
<path d="M1094.72 464.055V445.117C1119.81 445.117 1140.16 465.463 1140.16 490.561V562.525H1121.22V490.561C1121.23 475.916 1109.36 464.055 1094.72 464.055Z" fill="#2D3E4C"/>
<path d="M992.576 255.918L993.288 236.996C1018.37 237.937 1037.93 259.034 1037 284.116L1034.3 356.025L1015.38 355.314L1018.08 283.404C1018.62 268.768 1007.2 256.464 992.576 255.918Z" fill="#2D3E4C"/>
<path d="M1069.58 352.831C1075.59 352.831 1080.46 347.959 1080.46 341.95C1080.46 335.941 1075.59 331.07 1069.58 331.07C1063.57 331.07 1058.7 335.941 1058.7 341.95C1058.7 347.959 1063.57 352.831 1069.58 352.831Z" fill="#2D3E4C"/>
<path d="M1014.8 584.698C1020.81 584.698 1025.68 579.826 1025.68 573.817C1025.68 567.808 1020.81 562.937 1014.8 562.937C1008.79 562.937 1003.92 567.808 1003.92 573.817C1003.92 579.826 1008.79 584.698 1014.8 584.698Z" fill="#2D3E4C"/>
<path d="M22.4435 403.47V422.408C-2.6544 422.408 -23 402.063 -23 376.965V305H-4.06193V376.965C-4.06193 391.609 7.807 403.47 22.4435 403.47Z" fill="#22B573"/>
<path d="M1440.44 452C1415.35 452 1395 472.346 1395 497.443C1395 522.549 1415.35 542.895 1440.44 542.895C1465.54 542.895 1485.89 522.549 1485.89 497.443C1485.89 472.346 1465.54 452 1440.44 452ZM1440.44 523.957C1425.8 523.957 1413.93 512.088 1413.93 497.443C1413.93 482.799 1425.8 470.938 1440.44 470.938C1455.09 470.938 1466.96 482.807 1466.96 497.443C1466.96 512.088 1455.08 523.957 1440.44 523.957Z" fill="#22B573"/>
</svg>
